<?xml version="1.0" encoding="utf-8"?>
<!-- Generator: Adobe Illustrator 18.0.0, SVG Export Plug-In . SVG Version: 6.00 Build 0)  -->
<!DOCTYPE svg PUBLIC "-//W3C//DTD SVG 1.1//EN" "http://www.w3.org/Graphics/SVG/1.1/DTD/svg11.dtd">
<svg version="1.1" id="Objects" xmlns="http://www.w3.org/2000/svg" xmlns:xlink="http://www.w3.org/1999/xlink" x="0px" y="0px"
	 viewBox="0 0 41.2 13.7" enable-background="new 0 0 41.2 13.7" xml:space="preserve">
<g>
	<path fill="#F6BC13" d="M11.8,9.4c0,0,0,0-0.1,0.1c-0.1,0.1-0.2,0.1-0.3,0.3c-0.3,0.2-0.7,0.5-1.3,0.8c-0.3,0.1-0.7,0.2-1.1,0.3
		C8.5,10.9,8.1,11,7.6,11c-0.5,0-1-0.1-1.5-0.3C5.6,10.5,5,10.2,4.6,9.9C4.1,9.5,3.6,9,3.2,8.5C3.1,8.2,2.9,7.9,2.8,7.6
		C2.7,7.4,2.6,7.3,2.6,7.1l0-0.1l0,0l0,0c0,0,0,0,0,0l0-0.1l0-0.2C2.3,5.8,2.4,5,2.6,4.3c0.1-0.4,0.3-0.7,0.5-1.1
		c0.1-0.2,0.2-0.3,0.4-0.5l0.2-0.2l0.2-0.2c0.6-0.6,1.3-1,2.2-1.2l0.1,0l0,0l0.1,0l0,0l0.1,0L6.6,1c0.2,0,0.4-0.1,0.7-0.1
		c0.4,0,0.8,0,1.2,0.1c0.8,0.1,1.6,0.4,2.3,0.7c0.7,0.3,1.4,0.7,2.1,1.1c0.3,0.2,0.6,0.4,1,0.6c0.3,0.2,0.6,0.4,0.9,0.6
		c0.6,0.4,1.2,0.8,1.8,1.3c0.6,0.4,1.2,0.9,1.8,1.3c0.6,0.4,1.2,0.8,1.7,1.2c1.1,0.8,2.2,1.5,3.3,2.2c0.3,0.2,0.5,0.3,0.8,0.5
		c0.3,0.2,0.5,0.3,0.8,0.4c0.5,0.3,1,0.5,1.5,0.7c0.2,0.1,0.5,0.1,0.7,0.2c0.1,0,0.1,0,0.2,0c0.1,0,0.1,0,0.2,0c0.1,0,0.1,0,0.2,0
		c0.1,0,0.1,0,0.2,0c0.5,0,0.9-0.1,1.3-0.2c0.4-0.1,0.8-0.3,1.1-0.5c0.3-0.2,0.5-0.5,0.7-0.7c0.4-0.5,0.6-1,0.6-1.3
		c0.1-0.2,0.1-0.3,0.1-0.4c0-0.1,0-0.1,0-0.1s0,0,0,0.1c0,0.1,0,0.2,0,0.4c0,0.1,0,0.2,0,0.3c0,0.1-0.1,0.2-0.1,0.4
		c0,0.1-0.1,0.3-0.1,0.4c-0.1,0.1-0.1,0.3-0.2,0.4c-0.2,0.3-0.4,0.6-0.7,0.9c-0.3,0.3-0.7,0.5-1.1,0.8c-0.4,0.2-0.9,0.4-1.5,0.4
		c-0.1,0-0.1,0-0.2,0c-0.1,0-0.1,0-0.2,0c-0.1,0-0.1,0-0.2,0c-0.1,0-0.1,0-0.2,0c-0.3,0-0.6,0-0.9-0.1c-0.6-0.1-1.2-0.3-1.8-0.6
		c-0.3-0.1-0.6-0.3-0.9-0.4c-0.3-0.1-0.6-0.3-0.9-0.4c-1.2-0.6-2.3-1.3-3.5-2.1c-1.2-0.8-2.4-1.6-3.6-2.4c-0.6-0.4-1.2-0.8-1.8-1.2
		c-0.3-0.2-0.6-0.4-0.9-0.6c-0.3-0.2-0.6-0.4-0.9-0.6c-1.2-0.7-2.5-1.4-3.8-1.6C8,2.5,7.7,2.4,7.4,2.4c-0.2,0-0.3,0-0.4,0l-0.3,0
		l-0.1,0l0,0c0,0,0,0,0,0l0,0l-0.1,0C5.9,2.7,5.3,3,4.9,3.4c-0.9,0.8-1.3,2-1.2,3l0,0.2l0,0.1c0,0,0,0,0,0l0,0l0,0l0,0.1
		c0,0.1,0.1,0.3,0.1,0.4C3.9,7.4,4,7.7,4.2,7.9c0.3,0.5,0.6,0.9,1,1.2C5.5,9.5,5.9,9.8,6.4,10c0.4,0.2,0.9,0.3,1.3,0.4
		c0.9,0.1,1.6,0,2.2-0.1c0.6-0.2,1.1-0.4,1.4-0.5c0.2-0.1,0.3-0.1,0.4-0.2C11.7,9.5,11.8,9.4,11.8,9.4z"/>
	<path fill="#F6BC13" d="M29.4,4.3c0,0,0,0,0.1-0.1c0.1-0.1,0.2-0.1,0.3-0.3c0.3-0.2,0.7-0.5,1.3-0.8c0.3-0.1,0.7-0.2,1.1-0.3
		c0.4-0.1,0.8-0.1,1.3-0.1c0.5,0,1,0.1,1.5,0.3c0.5,0.2,1.1,0.5,1.5,0.8c0.5,0.4,0.9,0.8,1.3,1.4c0.2,0.3,0.3,0.6,0.5,0.9
		c0.1,0.2,0.1,0.3,0.2,0.5l0,0.1l0,0l0,0c0,0,0,0,0,0l0,0.1l0,0.2c0.1,0.7,0.1,1.5-0.2,2.3c-0.1,0.4-0.3,0.7-0.5,1.1
		c-0.1,0.2-0.2,0.3-0.4,0.5l-0.2,0.2l-0.2,0.2c-0.6,0.6-1.3,1-2.2,1.2l-0.1,0l0,0l-0.1,0l0,0l-0.1,0l-0.3,0.1
		c-0.2,0-0.4,0.1-0.7,0.1c-0.4,0-0.8,0-1.2-0.1c-0.8-0.1-1.6-0.4-2.3-0.7c-0.7-0.3-1.4-0.7-2.1-1.1c-0.3-0.2-0.6-0.4-1-0.6
		c-0.3-0.2-0.6-0.4-0.9-0.6c-0.6-0.4-1.2-0.8-1.8-1.3c-0.6-0.4-1.2-0.9-1.8-1.3C22.1,6.8,21.6,6.4,21,6c-1.1-0.8-2.2-1.5-3.3-2.2
		c-0.3-0.2-0.5-0.3-0.8-0.5c-0.3-0.2-0.5-0.3-0.8-0.4c-0.5-0.3-1-0.5-1.5-0.7c-0.2-0.1-0.5-0.1-0.7-0.2c-0.1,0-0.1,0-0.2,0
		c-0.1,0-0.1,0-0.2,0c-0.1,0-0.1,0-0.2,0c-0.1,0-0.1,0-0.2,0c-0.5,0-0.9,0.1-1.3,0.2c-0.4,0.1-0.8,0.3-1.1,0.5
		c-0.3,0.2-0.5,0.5-0.7,0.7C9.6,4,9.4,4.5,9.3,4.9C9.3,5,9.3,5.2,9.3,5.3c0,0.1,0,0.1,0,0.1s0,0,0-0.1c0-0.1,0-0.2,0-0.4
		c0-0.1,0-0.2,0-0.3c0-0.1,0.1-0.2,0.1-0.4c0-0.1,0.1-0.3,0.1-0.4c0.1-0.1,0.1-0.3,0.2-0.4c0.2-0.3,0.4-0.6,0.7-0.9
		c0.3-0.3,0.7-0.5,1.1-0.8c0.4-0.2,0.9-0.4,1.5-0.4c0.1,0,0.1,0,0.2,0c0.1,0,0.1,0,0.2,0c0.1,0,0.1,0,0.2,0c0.1,0,0.1,0,0.2,0
		c0.3,0,0.6,0,0.9,0.1c0.6,0.1,1.2,0.3,1.8,0.6c0.3,0.1,0.6,0.3,0.9,0.4c0.3,0.1,0.6,0.3,0.9,0.4c1.2,0.6,2.3,1.3,3.5,2.1
		c1.2,0.8,2.4,1.6,3.6,2.4C26,7.6,26.6,8,27.2,8.4c0.3,0.2,0.6,0.4,0.9,0.6c0.3,0.2,0.6,0.4,0.9,0.6c1.2,0.7,2.5,1.4,3.8,1.6
		c0.3,0.1,0.6,0.1,0.9,0.1c0.2,0,0.3,0,0.4,0l0.3,0l0.1,0l0,0c0,0,0,0,0,0l0,0l0.1,0c0.6-0.1,1.1-0.4,1.6-0.8c0.9-0.8,1.3-2,1.2-3
		l0-0.2l0-0.1c0,0,0,0,0,0l0,0l0,0l0-0.1c0-0.1-0.1-0.3-0.1-0.4C37.2,6.3,37.1,6,37,5.8c-0.3-0.5-0.6-0.9-1-1.2
		c-0.4-0.3-0.8-0.6-1.2-0.8c-0.4-0.2-0.9-0.3-1.3-0.4c-0.9-0.1-1.6,0-2.2,0.1c-0.6,0.2-1.1,0.4-1.4,0.5c-0.2,0.1-0.3,0.1-0.4,0.2
		C29.4,4.3,29.4,4.3,29.4,4.3z"/>
</g>
</svg>
