<?xml version="1.0" encoding="utf-8"?>
<!-- Generator: Adobe Illustrator 18.0.0, SVG Export Plug-In . SVG Version: 6.00 Build 0)  -->
<!DOCTYPE svg PUBLIC "-//W3C//DTD SVG 1.1//EN" "http://www.w3.org/Graphics/SVG/1.1/DTD/svg11.dtd">
<svg version="1.1" id="Layer_1" xmlns="http://www.w3.org/2000/svg" xmlns:xlink="http://www.w3.org/1999/xlink" x="0px" y="0px"
	 viewBox="0 0 199 85" enable-background="new 0 0 199 85" xml:space="preserve">
<g>
	<g>
		<path fill="#FFFFFF" d="M69.2,31.8c0-0.2,0-0.4,0-0.6c-0.2,0-0.5,0-0.7,0L69.2,31.8z"/>
		<polygon fill="#FFFFFF" points="99.3,10.3 99.3,10.3 99.3,10.3 		"/>
		<path fill="#FFFFFF" d="M124.6,30.8c-0.7,0-1.5,0-2.2,0l-7.7,0.1l-3.8,0.1c-1.3,0-2.6,0.1-3.8,0.1l-7.7,0.2l-3.8,0.1
			c-1.3,0-2.6,0.1-3.8,0.1c-1.3,0-2.6,0-3.8,0c-1.3,0-2.6,0-3.8,0c-1.3,0-2.6,0-3.8,0c-1.3,0-2.6,0-3.8-0.1c-2.3-0.1-4.7-0.1-7-0.2
			c0,0.2,0,0.4,0,0.6l-0.7-0.7c0.2,0,0.5,0,0.7,0c0-0.2,0-0.4,0-0.6c0.1-0.4,0.1-0.8,0.2-1.2c0.2-0.8,0.4-1.6,0.7-2.4
			c0.1-0.4,0.3-0.8,0.5-1.1l0.3-0.6c0.1-0.2,0.2-0.4,0.3-0.5c0.1-0.2,0.2-0.4,0.3-0.5l0.3-0.5c0.2-0.4,0.5-0.7,0.7-1
			c0.5-0.7,1-1.3,1.6-1.9c0.6-0.6,1.2-1.2,1.8-1.7c0.3-0.3,0.6-0.5,1-0.8c0.3-0.3,0.7-0.5,1-0.8c0.3-0.3,0.7-0.5,1-0.7
			c0.3-0.2,0.7-0.5,1.1-0.7c0.7-0.5,1.4-0.9,2.2-1.3c0.7-0.4,1.5-0.8,2.3-1.1c0.4-0.2,0.8-0.3,1.2-0.5c0.4-0.2,0.8-0.3,1.2-0.5
			c0.4-0.2,0.8-0.3,1.2-0.4c0.4-0.1,0.8-0.3,1.2-0.4c0.4-0.1,0.8-0.2,1.2-0.4c0.4-0.1,0.8-0.2,1.2-0.3c0.8-0.2,1.7-0.3,2.5-0.5
			c0.4-0.1,0.8-0.1,1.3-0.2l1.3-0.1l1.3,0l1.3,0l1.3,0l1.3,0l1.3,0.1c0.4,0,0.9,0.1,1.3,0.2c0.8,0.1,1.7,0.3,2.5,0.5
			c0.8,0.2,1.7,0.4,2.5,0.7c0.4,0.1,0.8,0.2,1.2,0.4l0.6,0.2l0.6,0.2c0.4,0.1,0.8,0.3,1.2,0.5c0.4,0.2,0.8,0.3,1.2,0.5
			c0.8,0.3,1.5,0.7,2.3,1.1c0.7,0.4,1.5,0.8,2.2,1.3c0.7,0.5,1.4,0.9,2.1,1.4c0.7,0.5,1.3,1,1.9,1.6c0.6,0.6,1.2,1.1,1.8,1.8
			c0.3,0.3,0.6,0.6,0.8,0.9c0.3,0.3,0.5,0.6,0.7,1l0.4,0.5l0.3,0.5c0.1,0.2,0.2,0.3,0.3,0.5l0.3,0.5c0.2,0.4,0.4,0.7,0.5,1.1
			c0.2,0.3,0.3,0.7,0.4,1.1c0.6-0.4,1.2-0.7,1.9-0.9c-0.1-0.3-0.2-0.6-0.4-0.9c-0.2-0.4-0.4-0.8-0.6-1.2l-0.3-0.6
			c-0.1-0.2-0.2-0.4-0.4-0.6l-0.4-0.6l-0.4-0.6c-0.3-0.4-0.5-0.7-0.8-1.1c-0.3-0.4-0.6-0.7-0.9-1c-0.6-0.7-1.3-1.3-2-1.8
			c-0.7-0.6-1.4-1.1-2.1-1.6c-0.7-0.5-1.5-0.9-2.3-1.4c-0.8-0.4-1.6-0.8-2.4-1.1c-0.8-0.4-1.6-0.7-2.4-1c-0.4-0.2-0.8-0.3-1.2-0.4
			c-0.4-0.1-0.8-0.3-1.3-0.4l-0.6-0.2l-0.6-0.2c-0.4-0.1-0.8-0.2-1.3-0.3c-0.8-0.2-1.7-0.4-2.6-0.5c-0.9-0.1-1.7-0.3-2.6-0.4
			c-0.9-0.1-1.7-0.2-2.6-0.2l-1.3-0.1l-1.3,0h0L98,10l-1.3,0.1c-0.9,0.1-1.7,0.1-2.6,0.2c-0.9,0.1-1.7,0.2-2.6,0.4
			c-0.4,0.1-0.9,0.2-1.3,0.2c-0.4,0.1-0.8,0.2-1.3,0.3c-0.4,0.1-0.8,0.2-1.3,0.3c-0.4,0.1-0.8,0.2-1.3,0.3c-0.4,0.1-0.8,0.2-1.2,0.4
			c-0.4,0.1-0.8,0.3-1.2,0.4c-0.8,0.3-1.6,0.6-2.4,1c-0.8,0.4-1.6,0.7-2.4,1.2c-0.8,0.4-1.5,0.9-2.3,1.4c-0.4,0.3-0.7,0.5-1.1,0.8
			c-0.4,0.3-0.7,0.5-1,0.8c-0.7,0.6-1.3,1.2-2,1.8c-0.6,0.7-1.2,1.3-1.7,2.1c-0.3,0.4-0.5,0.7-0.8,1.1L70,23.4
			c-0.1,0.2-0.2,0.4-0.3,0.6c-0.1,0.2-0.2,0.4-0.3,0.6l-0.3,0.6c-0.2,0.4-0.3,0.8-0.5,1.3c-0.3,0.9-0.5,1.7-0.6,2.6
			C68,29.5,68,30,67.9,30.4c0,0.4,0,0.9,0,1.3l0,0.7l0.7,0c2.6-0.1,5.1-0.2,7.7-0.2c1.3,0,2.6-0.1,3.8-0.1c1.3,0,2.6,0,3.8,0
			c1.3,0,2.6,0,3.8,0c1.3,0,2.6,0,3.8,0c1.3,0,2.6,0.1,3.8,0.1l3.8,0.1l7.7,0.2c1.3,0,2.6,0.1,3.8,0.1l3.8,0.1l7.7,0.1
			c0.4,0,0.8,0,1.2,0c0.2-0.4,0.4-0.9,0.6-1.3C124.3,31.3,124.4,31,124.6,30.8z"/>
		<path fill="#F6BC13" d="M122.3,53.2c-1.3,0-2.6,0.1-3.8,0.1c-1.3,0-2.6,0-3.8,0c-1.3,0-2.6,0-3.8,0c-1.3,0-2.6,0-3.8,0
			c-1.3,0-2.6-0.1-3.8-0.1L99.3,53l-7.7-0.2c-1.5,0-3-0.1-4.5-0.1l-0.2,1.1c-1.1,5.4-4.5,6.6-7.1,6.6c-2.9,0-4.9-1.8-4.9-4.4
			c0-1.4,0.5-2.5,1.3-3.4c-2.5,0-5-0.1-7.5-0.1l-1.1,0l0.1,1c0,0.5,0,0.9,0.1,1.4l0.1,0.7c0,0.2,0.1,0.5,0.1,0.7
			c0.1,0.4,0.2,0.9,0.3,1.3l0.2,0.7c0.1,0.2,0.2,0.4,0.2,0.6c0.1,0.2,0.2,0.4,0.3,0.6l0.3,0.6c0.2,0.4,0.4,0.8,0.6,1.2
			c0.2,0.4,0.5,0.8,0.7,1.1c0.3,0.4,0.5,0.7,0.8,1.1c0.3,0.3,0.6,0.7,0.9,1c0.3,0.3,0.6,0.7,0.9,1c0.3,0.3,0.6,0.6,1,0.9
			c0.3,0.3,0.7,0.6,1,0.9c0.3,0.3,0.7,0.5,1,0.8c0.4,0.2,0.7,0.5,1.1,0.7l1.1,0.7l1.1,0.6l1.2,0.6l1.2,0.6c0.8,0.4,1.6,0.7,2.4,1
			c0.8,0.3,1.6,0.6,2.5,0.8c0.4,0.1,0.8,0.2,1.2,0.4c0.4,0.1,0.8,0.2,1.2,0.3c0.4,0.1,0.8,0.2,1.3,0.3c0.4,0.1,0.8,0.2,1.3,0.2
			c0.8,0.2,1.7,0.3,2.5,0.4c0.8,0.1,1.7,0.2,2.6,0.2l1.3,0l1.3,0h0l1.3,0l1.3-0.1c0.9-0.1,1.7-0.1,2.6-0.2c0.8-0.1,1.7-0.2,2.5-0.4
			c0.4-0.1,0.8-0.2,1.3-0.2c0.4-0.1,0.8-0.2,1.3-0.3c0.4-0.1,0.8-0.2,1.2-0.3c0.4-0.1,0.8-0.2,1.2-0.4c0.8-0.2,1.6-0.5,2.5-0.8
			c0.8-0.3,1.6-0.6,2.4-1l1.2-0.6l1.2-0.6l1.1-0.7l1.1-0.7c0.4-0.2,0.7-0.5,1.1-0.8c0.4-0.3,0.7-0.5,1-0.8c0.3-0.3,0.7-0.6,1-0.9
			c0.3-0.3,0.6-0.6,1-0.9c0.3-0.3,0.6-0.6,0.9-1c0.3-0.3,0.6-0.7,0.8-1c0.3-0.4,0.5-0.7,0.8-1.1c0.2-0.4,0.5-0.7,0.7-1.1
			c0.2-0.4,0.4-0.8,0.6-1.2l0.3-0.6c0.1-0.2,0.2-0.4,0.2-0.6c0.1-0.2,0.2-0.4,0.2-0.6l0.2-0.7c0.1-0.4,0.2-0.9,0.3-1.3
			c0-0.2,0.1-0.4,0.1-0.7l0.1-0.7c0-0.4,0-0.9,0-1.3l0-0.7l-0.7,0L122.3,53.2z"/>
		<path fill="#FFFFFF" d="M40.2,36.9c2.1-1.2,3.2-3.2,3.2-5.1c0-2.7-2.3-5.2-7.4-5.2c-5.4,0-11.4,4.1-11.4,8.4
			c0,2.3,1.2,3.2,3.5,3.2c0-0.3-0.5-0.6-0.5-2.2c0-4.9,3.5-7.9,8.8-7.9c2.5,0,3.6,1.7,3.6,3.5c0,2.5-1.9,5.4-4.6,5.4h-0.2l1.6-7.3
			L32,30.4L27.6,51h4.7l2.7-12.5c0.6-0.1,1.2-0.1,1.6-0.1c2.1,0,3,1.9,3,4c0,2.8-1.4,6-3.2,6c-0.5,0-1.6-0.2-2.2-1.2
			c-0.3,0.8-0.4,1.5-0.4,2c0,2,1.9,2.2,3.8,2.2c3.6,0,6.5-5.1,6.5-9.3C44,39.7,42.9,37.5,40.2,36.9z"/>
		<path fill="#FFFFFF" d="M59.7,48c-1.3,0-1.6-0.5-1.6-1.2c0-0.3,0.1-0.5,0.1-0.9L60.6,35h-4.7l-2.3,10.9c-0.1,0.4-0.2,0.7-0.2,1
			c-0.8,0.6-1.6,1.1-2.3,1.1c-1.3,0-1.6-0.5-1.6-1.3c0-0.3,0.1-0.5,0.1-0.9L51.9,35h-4.7l-2.3,10.9c-0.1,0.6-0.2,1.1-0.2,1.6
			c0,2.4,1.6,3.5,4.1,3.5c1.4,0,3.2-1.3,4.7-2.7c0.3,1.9,1.8,2.7,4,2.7c0.7,0,1.6-0.4,2.5-1l0.5-2.1C60.1,48,59.9,48,59.7,48z"/>
		<path fill="#FFFFFF" d="M62.1,46l-0.2,1l0,0l-0.4,1.8c0,0,0,0,0,0l-0.2,1l0,0l-0.2,1c0,0,0,0,0,0l0,0.2h4.7l1.2-5.8l0,0l0.3-1.3
			l1.2-5.6c0.7-0.7,1.3-1,2.2-1c1,0,0.1,2.1,1.9,2.1c1.6,0,2.4-1.4,2.4-2.5c0-1.2-0.9-2.1-2.3-2.1c-1.4,0-2.7,0.8-3.8,1.8l0.4-1.5
			h-4.7l-2.2,10c0,0,0,0,0,0L62.1,46"/>
		<path fill="#FFFFFF" d="M89.2,47.4c-0.8,0.7-1.7,1.4-2.6,1.8L89.6,35H85l-0.4,1.4c-0.5-0.9-1.4-1.6-2.6-1.6c-6.3,0-8,7.4-8,11.9
			c0,1.9,0.9,4.5,4,4.5c1.5,0,2.8-0.7,3.7-1.6l-0.3,1.7c-1.2,0.4-2.3,0.7-3.2,1.7h0c-1.2,0-2,1.6-2,3.2c0,2.1,1.7,3.1,3.6,3.1
			c2.1,0,5-0.9,5.9-5.6l0.3-0.9v0l0.3-1.7c1.4-0.5,2.6-1.1,3.6-1.8C89.6,48.6,89.3,48.1,89.2,47.4z M80.4,48.1c-1.4,0-2.4-0.5-2.4-2
			c0-2.8,1.2-9.5,4.4-9.5c0.6,0,1.3,0.4,1.9,1.4l-1.9,9C81.7,47.6,81,48.1,80.4,48.1z M80.9,53.7c-0.4,1.9-1.2,2.9-1.9,2.9
			c-0.7,0-1.1-0.6-1.1-1.1c0-1.3,1.3-2.1,3.2-2.8L80.9,53.7z"/>
		<path fill="#FFFFFF" d="M94.7,45.9c0-0.4,0-0.9,0.1-1.4c3.1-0.4,7.3-2.7,7.3-6.6c0-2.3-1.5-3.4-4.2-3.4c-4.9,0-6.9,4.9-7.5,9
			c-0.1,0.6-0.1,1.1-0.2,1.7c0,0.2,0,0.5,0,0.7c0,0.1,0,0.3,0,0.4c0,0.7,0.2,1.4,0.4,2c0.1,0.2,0.2,0.4,0.3,0.6
			c0.1,0.2,0.2,0.4,0.4,0.5c0.8,1,2,1.6,3.6,1.6c2.1,0,3.9-0.8,5.4-2l0.5-2.2c-1.2,1.1-2.6,1.9-3.6,1.9C96.1,48.6,94.7,48,94.7,45.9
			z M99.1,36.2c1,0,1.1,1.1,1.1,1.8c0,2.3-2.1,4.9-5.1,4.9C95.8,39.8,97.2,36.2,99.1,36.2z"/>
		<path fill="#FFFFFF" d="M102.2,47.3l-0.3,1.2 M102,48.5l-0.2,1.1c0,0,0,0,0,0l-0.3,1.4h4.7l2.7-12.7c0.7-0.7,1.3-1,2.2-1
			c1,0,0.1,2.1,1.9,2.1c1.6,0,2.4-1.4,2.4-2.5c0-1.2-0.9-2.1-2.3-2.1c-1.4,0-2.7,0.8-3.8,1.8l0.4-1.5h-4.7l-1.8,8l-0.1,0.6l-0.1,0.6
			l-0.6,3"/>
		<path fill="#F6BC13" d="M134,26.6c-1.3,0-2.5,0.2-3.6,0.6c-0.7,0.3-1.3,0.6-1.9,1c-1,0.7-1.8,1.5-2.5,2.5c-0.4,0.6-0.8,1.3-1.1,2
			c-1.4,3.1-1.9,6.8-1.9,10.1c0,6.7,3.8,8.3,7.1,8.3c2,0,4.7-0.4,6.7-2.1c-0.2-0.6-0.3-1.2-0.3-1.9c-1.2,0.7-2.6,1.1-4.1,1.1
			c-3.5,0-4.3-1.8-4.3-6.1c0-3,0.7-6.6,1.9-9.4c0.3-0.7,0.6-1.4,1-1.9c1-1.6,2.3-2.7,3.7-2.7c2.1,0,2.2,1.8,2.2,2.3
			c0,0.8-0.6,2.4-1.4,2.7c0.6,0.7,1.3,0.8,1.9,0.8c1.7,0,2.3-1.3,2.3-3C139.7,27.8,137.1,26.6,134,26.6z"/>
		<path fill="#F6BC13" d="M138.4,49.4c0.6,1,1.6,1.8,3.5,1.8c2,0,3.4-1.3,4.4-2.7c0.4,1.5,1.6,2.3,3.4,2.4c0.9-0.6,2-0.9,3-1.2
			l0.4-1.8c-0.2,0.1-0.3,0.1-0.5,0.1c-1.3,0-1.6-0.5-1.6-1.2c0-0.3,0.1-0.5,0.1-0.9l2.3-10.9h-4.7l-0.2,0.7
			c-0.6-0.5-1.4-0.7-2.2-0.7c-5.2,0-7.5,3.9-8.2,8.9h0c-0.1,0-0.1,0.6-0.2,1.1c0,0.4-0.1,0.7-0.1,1.1c0,0.3,0,0.6,0,1
			c0,0.3,0,0.6,0.1,0.8c0,0.3,0.1,0.5,0.2,0.8C138.2,48.9,138.3,49.2,138.4,49.4 M146.4,45.8c-0.1,0.4-0.2,0.7-0.2,1.1
			c-0.6,0.9-1.3,1.6-2.1,1.6c-0.8,0-1.9-0.4-1.9-2.3c0-4.4,1.9-9.6,4.4-9.6c0.5,0,1.1,0.1,1.6,0.6L146.4,45.8z"/>
		<path fill="#F6BC13" d="M154.8,46.1l-0.2,1c0,0,0,0,0,0l-0.4,1.8c0,0,0,0,0,0l-0.2,1c0,0,0,0,0,0l-0.2,0.8
			c-1.5,0.4-2.8,0.9-3.8,1.5h0c-1.1,0.6-1.8,1.7-1.8,3.3c0,2.1,1.9,3.5,3.8,3.5c2.1,0,4.8-0.9,5.8-5.5l1.8-8.2l0,0l0.3-1.5l1.7-7.8
			h2.4l0.2-1h-2.4l0.6-2.7c0.5-2.2,1.6-2.7,2.3-2.7c0.7,0,1.2,0.6,1.2,1.3c0,0.3,0,0.1-0.1,1.1h1.5c0.1-1,0.1-1.1,0.1-1.6
			c0-2.1-1.9-3.6-3.8-3.6c-2.1,0-4.9,0.8-5.9,5.5L155,45.1c0,0,0,0,0,0L154.8,46.1 M153.2,53.7c-0.4,1.9-1.2,2.5-1.9,2.5
			c-0.7,0-1.3-0.6-1.3-1.1c0-1.8,1.5-2.7,3.6-3.3L153.2,53.7z"/>
		<path fill="#F6BC13" d="M167.6,51c3.2,0,6.1-0.9,6.1-4.4c-1.3,1.2-2.6,2.1-4.2,2.1c-1.3,0-2.3-0.6-2.3-2.8c0-0.4,0-0.9,0.1-1.4
			c3.1-0.4,7.3-2.7,7.3-6.6c0-2.3-1.5-3.4-4.2-3.4c-5.9,0-7.7,7.2-7.7,11.4C162.8,48.6,164.5,51,167.6,51z M171.5,36.2
			c1,0,1.1,1.1,1.1,1.8c0,2.3-2.1,4.9-5.1,4.9C168.2,39.8,169.7,36.2,171.5,36.2z"/>
	</g>
	<g>
		<path fill="#F6BC13" d="M90.1,19.8c0,0.6-0.6-0.1-1.8-0.1c-1.2,0-1.8,0.7-1.8,0.1c0-0.5,0.8-0.9,1.8-0.8
			C89.3,18.9,90.2,19.2,90.1,19.8z"/>
		<path fill="#F6BC13" d="M90.1,19.8c0,0.6-0.6-0.1-1.8-0.1c-1.2,0-1.8,0.7-1.8,0.1c0-0.5,0.8-0.9,1.8-0.8
			C89.3,18.9,90.2,19.2,90.1,19.8z"/>
	</g>
	<g>
		<path fill="#F6BC13" d="M101.1,15.8c0,0.6-0.6-0.1-1.8-0.1c-1.2,0-1.8,0.7-1.8,0.1c0-0.5,0.8-0.9,1.8-0.8
			C100.3,14.9,101.1,15.2,101.1,15.8z"/>
		<path fill="#F6BC13" d="M101.1,15.8c0,0.6-0.6-0.1-1.8-0.1c-1.2,0-1.8,0.7-1.8,0.1c0-0.5,0.8-0.9,1.8-0.8
			C100.3,14.9,101.1,15.2,101.1,15.8z"/>
	</g>
	<g>
		<path fill="#F6BC13" d="M101.1,22.6c0,0.6-0.6-0.1-1.8-0.1c-1.2,0-1.8,0.7-1.8,0.1c0-0.5,0.8-0.9,1.8-0.8
			C100.3,21.7,101.1,22,101.1,22.6z"/>
		<path fill="#F6BC13" d="M101.1,22.6c0,0.6-0.6-0.1-1.8-0.1c-1.2,0-1.8,0.7-1.8,0.1c0-0.5,0.8-0.9,1.8-0.8
			C100.3,21.7,101.1,22,101.1,22.6z"/>
	</g>
	<g>
		<path fill="#F6BC13" d="M111.8,19.8c0,0.6-0.6-0.1-1.8-0.1c-1.2,0-1.8,0.7-1.8,0.1c0-0.5,0.8-0.9,1.8-0.8
			C110.9,18.9,111.8,19.2,111.8,19.8z"/>
		<path fill="#F6BC13" d="M111.8,19.8c0,0.6-0.6-0.1-1.8-0.1c-1.2,0-1.8,0.7-1.8,0.1c0-0.5,0.8-0.9,1.8-0.8
			C110.9,18.9,111.8,19.2,111.8,19.8z"/>
	</g>
</g>
</svg>
